
CASCADE Topology V1, (c) Matra-Datavision
Locations 4
1
              0               0               1               0 
              0               1               0               0 
             -1               0               0           -0.15 
1
              1               0               0               0 
              0               1               0               0 
              0               0               1               0 
2  1 1 2 1 0
1
              1               0               0               0 
              0               1               0               0 
              0               0               1             3.9 
Curve2ds 0
Curves 8
1 -0.14999999999999999 -0.11999999999998852 0 0 0 1 
1 0.14999999999999999 -0.11999999999998852 0 0 0 1 
1 -0.14999999999999999 -0.11999999999998852 0 1 0 0 
1 0.14999999999999999 0.1200000000000145 0 0 0 1 
1 0.14999999999999999 -0.11999999999998852 0 0 1 0 
1 -0.14999999999999999 0.1200000000000145 0 0 0 1 
1 0.14999999999999999 0.1200000000000145 0 -1 0 0 
1 -0.14999999999999999 0.1200000000000145 0 0 -1 0 
Polygon3D 0
PolygonOnTriangulations 0
Surfaces 5
1 -0.14999999999999999 -0.11999999999998852 0 0 1 0 1 0 0 0 0 -1 
1 0.14999999999999999 -0.11999999999998852 0 -1 0 0 0 1 0 0 0 -1 
1 0.14999999999999999 0.1200000000000145 0 0 -1 0 -1 0 0 -0 -0 -1 
1 -0.14999999999999999 0.1200000000000145 0 1 0 -0 0 -1 0 0 -0 -1 
1 -0.14999999999999999 -0.11999999999998852 0 0 0 -1 -1 0 -0 0 1 0 
Triangulations 0

TShapes 25
Ve
1e-07
-0.15 -0.119999999999989 0
0 0

0101101
*
Ed
 1e-07 1 1 0
1  1 0 0 3.9
0

0101000
+25 0 -25 4 *
Ve
1e-07
0.15 -0.119999999999989 0
0 0

0101101
*
Ed
 1e-07 1 1 0
1  2 0 0 3.9
0

0101000
+23 0 -23 4 *
Ed
 1e-07 1 1 0
1  3 0 0 0.3
0

0101000
+25 0 -23 0 *
Wi

0101000
+24 0 -22 0 -21 0 +21 4 *
Fa
0  1e-07 1 0

0101000
+20 0 *
Ve
1e-07
0.15 0.120000000000014 0
0 0

0101101
*
Ed
 1e-07 1 1 0
1  4 0 0 3.9
0

0101000
+18 0 -18 4 *
Ed
 1e-07 1 1 0
1  5 0 0 0.240000000000003
0

0101000
+23 0 -18 0 *
Wi

0101000
+22 0 -17 0 -16 0 +16 4 *
Fa
0  1e-07 2 0

0101000
+15 0 *
Ve
1e-07
-0.15 0.120000000000014 0
0 0

0101101
*
Ed
 1e-07 1 1 0
1  6 0 0 3.9
0

0101000
+13 0 -13 4 *
Ed
 1e-07 1 1 0
1  7 0 0 0.3
0

0101000
+18 0 -13 0 *
Wi

0101000
+17 0 -12 0 -11 0 +11 4 *
Fa
0  1e-07 3 0

0101000
+10 0 *
Ed
 1e-07 1 1 0
1  8 0 0 0.240000000000003
0

0101000
+13 0 -25 0 *
Wi

0101000
+12 0 -24 0 -8 0 +8 4 *
Fa
0  1e-07 4 0

0101000
+7 0 *
Wi

0101100
+21 0 +16 0 +11 0 +8 0 *
Fa
0  1e-07 5 0

0101000
-5 0 *
Sh

0101000
-19 0 -14 0 -9 0 -6 0 +4 0 -4 4 *
So

0100000
+3 0 *
Co

1100000
+2 3 *

+1 0 